<?xml version="1.0"?>
<svg xmlns="http://www.w3.org/2000/svg" height="512px" version="1.1" viewBox="1 1 511 511.99999" width="512px">
<g id="surface1">
<path d="M 437.519531 74.980469 C 389.167969 26.628906 324.878906 0 256.5 0 C 188.121094 0 123.832031 26.628906 75.480469 74.980469 C 27.128906 123.332031 0.5 187.621094 0.5 256 C 0.5 324.378906 27.128906 388.667969 75.480469 437.019531 C 123.832031 485.371094 188.121094 512 256.5 512 C 299.203125 512 341.59375 501.191406 379.082031 480.742188 C 383.933594 478.097656 385.71875 472.023438 383.074219 467.175781 C 380.429688 462.324219 374.355469 460.539062 369.507812 463.183594 C 334.945312 482.035156 295.867188 492 256.5 492 C 126.367188 492 20.5 386.128906 20.5 256 C 20.5 125.871094 126.371094 20 256.5 20 C 386.628906 20 492.5 125.871094 492.5 256 C 492.5 319.039062 467.949219 378.300781 423.375 422.875 C 419.472656 426.78125 419.472656 433.113281 423.375 437.019531 C 427.28125 440.925781 433.613281 440.925781 437.519531 437.019531 C 461.414062 413.125 480.082031 385.183594 493.011719 353.96875 C 505.941406 322.75 512.5 289.789062 512.5 256 C 512.5 187.621094 485.871094 123.332031 437.519531 74.980469 Z M 437.519531 74.980469 " style=" fill-rule:nonzero;fill-opacity:1;" stroke="#FFFFFF" fill="#FFFFFF"/>
<path d="M 112.25 97.609375 C 108.34375 93.703125 102.011719 93.703125 98.105469 97.609375 C 77.199219 118.515625 60.863281 142.964844 49.546875 170.277344 C 38.238281 197.59375 32.5 226.433594 32.5 256 C 32.5 315.832031 55.800781 372.082031 98.109375 414.390625 C 140.414062 456.703125 196.667969 480 256.5 480 C 316.332031 480 372.582031 456.699219 414.890625 414.390625 C 457.203125 372.085938 480.5 315.832031 480.5 256 C 480.5 196.167969 457.199219 139.917969 414.890625 97.609375 C 372.585938 55.296875 316.332031 32 256.5 32 C 221.910156 32 187.277344 40.175781 156.339844 55.640625 C 151.402344 58.109375 149.398438 64.117188 151.867188 69.058594 C 154.335938 73.996094 160.339844 76 165.28125 73.53125 C 193.457031 59.445312 225 52 256.5 52 C 368.984375 52 460.5 143.515625 460.5 256 C 460.5 368.484375 368.984375 460 256.5 460 C 144.011719 460 52.5 368.484375 52.5 256 C 52.5 201.511719 73.71875 150.28125 112.25 111.75 C 116.15625 107.84375 116.15625 101.511719 112.25 97.609375 Z M 112.25 97.609375 " style=" fill-rule:nonzero;fill-opacity:1;" stroke="#FFFFFF" fill="#FFFFFF"/>
<path d="M 118.941406 91.792969 C 120.90625 94.363281 123.882812 95.710938 126.890625 95.710938 C 129.011719 95.710938 131.15625 95.039062 132.96875 93.652344 C 137.386719 90.339844 138.285156 84.070312 134.96875 79.652344 C 131.65625 75.234375 125.390625 74.339844 120.96875 77.652344 C 120.941406 77.671875 120.839844 77.75 120.8125 77.773438 L 126.871094 85.726562 L 120.796875 77.785156 C 116.410156 81.140625 115.585938 87.40625 118.941406 91.792969 Z M 118.941406 91.792969 " style=" fill-rule:nonzero;fill-opacity:1;" stroke="#FFFFFF" fill="#FFFFFF"/>
<path d="M 402.808594 441.171875 L 402.609375 441.335938 C 398.289062 444.773438 397.574219 451.066406 401.011719 455.386719 C 402.988281 457.863281 405.902344 459.15625 408.84375 459.15625 C 411.027344 459.15625 413.226562 458.445312 415.066406 456.980469 L 415.179688 456.890625 C 419.519531 453.472656 420.269531 447.1875 416.851562 442.847656 C 413.4375 438.507812 407.152344 437.757812 402.808594 441.171875 Z M 402.808594 441.171875 " style=" fill-rule:nonzero;fill-opacity:1;" stroke="#FFFFFF" fill="#FFFFFF"/>
<path d="M 229.832031 346 C 235.355469 346 239.832031 341.523438 239.832031 336 L 239.832031 176 C 239.832031 170.476562 235.355469 166 229.832031 166 L 176.5 166 C 170.976562 166 166.5 170.476562 166.5 176 L 166.5 336 C 166.5 341.523438 170.976562 346 176.5 346 Z M 186.5 186 L 219.832031 186 L 219.832031 326 L 186.5 326 Z M 186.5 186 " style=" fill-rule:nonzero;fill-opacity:1;" stroke="#FFFFFF" fill="#FFFFFF"/>
<path d="M 336.5 346 C 342.019531 346 346.5 341.523438 346.5 336 L 346.5 176 C 346.5 170.476562 342.019531 166 336.5 166 L 283.164062 166 C 277.644531 166 273.164062 170.476562 273.164062 176 L 273.164062 336 C 273.164062 341.523438 277.644531 346 283.164062 346 Z M 293.164062 186 L 326.5 186 L 326.5 326 L 293.164062 326 Z M 293.164062 186 " style=" fill-rule:nonzero;fill-opacity:1;" stroke="#FFFFFF" fill="#FFFFFF"/>
</g>
</svg>
