<?xml version="1.0" encoding="iso-8859-1"?>
<!-- Generator: Adobe Illustrator 19.0.0, SVG Export Plug-In . SVG Version: 6.00 Build 0)  -->
<svg xmlns="http://www.w3.org/2000/svg" xmlns:xlink="http://www.w3.org/1999/xlink" version="1.1" id="Capa_1" x="0px" y="0px" viewBox="0 0 512 512" style="enable-background:new 0 0 512 512;" xml:space="preserve" width="512px" height="512px">
<g>
	<g>
		<g>
			<path d="M161.358,281.6H77.575c-4.713,0-8.533,3.82-8.533,8.533s3.82,8.533,8.533,8.533h83.783     c2.263,0.001,4.434-0.898,6.035-2.499c1.6-1.6,2.499-3.771,2.499-6.035c0.001-2.263-0.898-4.434-2.499-6.035     C165.793,282.498,163.622,281.599,161.358,281.6z" fill="#FFFFFF"/>
			<path d="M85.333,264.533c2.263,0.001,4.434-0.898,6.035-2.499c1.6-1.6,2.499-3.771,2.499-6.035v-17.067     c0-4.713-3.821-8.533-8.533-8.533s-8.533,3.82-8.533,8.533V256c-0.001,2.263,0.898,4.434,2.499,6.035     C80.899,263.635,83.07,264.534,85.333,264.533z" fill="#FFFFFF"/>
			<path d="M153.6,264.533c2.263,0.001,4.434-0.898,6.035-2.499c1.6-1.6,2.499-3.771,2.499-6.035v-17.067     c0-4.713-3.821-8.533-8.533-8.533c-4.713,0-8.533,3.82-8.533,8.533V256c-0.001,2.263,0.898,4.434,2.499,6.035     C149.166,263.635,151.337,264.534,153.6,264.533z" fill="#FFFFFF"/>
			<path d="M179.2,332.8c14.132-0.015,25.585-11.468,25.6-25.6v-0.862c19.865-4.055,34.133-21.529,34.133-41.804     c0-20.275-14.268-37.749-34.133-41.804v-0.862c-0.015-14.132-11.468-25.585-25.6-25.6h-42.668l13.656-10.242     c1.81-1.357,3.007-3.377,3.328-5.617c0.32-2.24-0.262-4.515-1.619-6.325l-11.133-14.848c7.453-10.717,6.048-25.254-3.318-34.346     s-23.938-10.064-34.429-2.297s-13.814,21.989-7.851,33.601c5.963,11.612,19.457,17.198,31.882,13.198l6.075,8.101l-25.031,18.775     H59.733c-14.132,0.015-25.585,11.468-25.6,25.6v0.862C14.268,226.784,0,244.259,0,264.533c0,20.275,14.268,37.749,34.133,41.804     v0.862c0.015,14.132,11.468,25.585,25.6,25.6h25.6v34.133h-51.2C15.29,366.953,0.02,382.224,0,401.067V486.4     c0.011,9.421,7.645,17.056,17.067,17.067h19.441c3.025,5.262,8.623,8.513,14.692,8.533h136.533     c9.421-0.011,17.056-7.645,17.067-17.067h17.067c9.421-0.011,17.056-7.645,17.067-17.067v-76.8     c-0.02-18.843-15.29-34.113-34.133-34.133h-51.2V332.8H179.2z M204.8,240.392c10.228,3.619,17.066,13.292,17.066,24.142     c0,10.85-6.837,20.522-17.066,24.142V240.392z M119.467,153.6c-4.713,0-8.533-3.821-8.533-8.533s3.82-8.533,8.533-8.533     s8.533,3.82,8.533,8.533C127.995,149.778,124.178,153.595,119.467,153.6z M34.133,288.675     c-10.228-3.619-17.066-13.292-17.066-24.142c0-10.85,6.837-20.522,17.066-24.142V288.675z M34.133,486.4H17.067v-85.333     c0.011-9.421,7.646-17.056,17.067-17.067V486.4z M204.8,384c9.421,0.011,17.056,7.646,17.067,17.067v76.8H204.8V384z      M153.6,494.933H85.333v-76.8H153.6V494.933z M187.733,384l0.011,102.343l-0.011,0.057l0.011,0.057l0.001,8.476h-17.079v-76.8     c-0.011-9.421-7.646-17.056-17.067-17.067H85.333c-9.421,0.011-17.056,7.645-17.067,17.067v76.8H51.2V384H187.733z      M102.4,366.933V332.8h34.133v34.133H102.4z M59.733,315.733c-4.711-0.005-8.529-3.822-8.533-8.533v-85.333     c0.005-4.711,3.822-8.529,8.533-8.533H179.2c4.711,0.005,8.529,3.822,8.533,8.533V307.2c-0.005,4.711-3.822,8.529-8.533,8.533     H59.733z" fill="#FFFFFF"/>
			<path d="M354.554,51.3c-30.21-1.286-59.635,9.819-81.462,30.743c-21.828,20.924-34.166,49.853-34.158,80.09     c-0.144,35.046,16.397,68.069,44.55,88.942c9.339,6.629,14.975,17.299,15.183,28.75v11.881     c-8.071,2.793-14.194,9.46-16.29,17.739s0.114,17.057,5.882,23.355c-6.819,7.474-8.571,18.274-4.466,27.521     c4.105,9.247,13.291,15.19,23.408,15.146h0.862c4.055,19.865,21.529,34.133,41.804,34.133s37.749-14.268,41.804-34.133h0.862     c10.117,0.044,19.303-5.899,23.408-15.146s2.353-20.046-4.466-27.521c5.768-6.298,7.979-15.076,5.882-23.355     c-2.097-8.279-8.22-14.946-16.29-17.739v-11.923c0.123-11.318,5.646-21.896,14.862-28.467     c37.761-28,53.783-76.755,39.993-121.697C442.132,84.679,401.521,53.302,354.554,51.3z M349.867,392.533     c-10.813-0.033-20.435-6.868-24.027-17.067h48.055C370.302,385.666,360.68,392.5,349.867,392.533z M392.533,358.4H307.2     c-4.713,0-8.533-3.82-8.533-8.533s3.82-8.533,8.533-8.533h85.333c4.713,0,8.533,3.82,8.533,8.533S397.246,358.4,392.533,358.4z      M392.533,324.267H307.2c-4.713,0-8.533-3.82-8.533-8.533s3.82-8.533,8.533-8.533h85.333c4.713,0,8.533,3.82,8.533,8.533     S397.246,324.267,392.533,324.267z M405.75,237.617c-13.571,9.773-21.654,25.443-21.75,42.167v10.35h-68.267v-10.308     c-0.184-16.835-8.358-32.58-22.021-42.417c-33.014-24.635-46.116-67.911-32.309-106.721     c13.806-38.81,51.296-64.088,92.451-62.338c39.741,1.707,74.096,28.266,85.756,66.297     C451.27,172.677,437.705,213.928,405.75,237.617z" fill="#FFFFFF"/>
			<path d="M349.867,34.133c4.713,0,8.533-3.821,8.533-8.533V8.533C358.4,3.82,354.58,0,349.867,0s-8.533,3.82-8.533,8.533V25.6     C341.333,30.313,345.154,34.133,349.867,34.133z" fill="#FFFFFF"/>
			<path d="M452.446,47.492l-12.071,12.067c-2.156,2.156-2.997,5.297-2.208,8.242c0.789,2.944,3.089,5.244,6.033,6.033     s6.086-0.053,8.242-2.208l12.071-12.067c3.332-3.332,3.332-8.734,0-12.067C461.18,44.16,455.778,44.16,452.446,47.492z" fill="#FFFFFF"/>
			<path d="M247.292,71.625c3.332,3.332,8.734,3.332,12.067,0c3.332-3.332,3.332-8.734,0-12.067l-12.071-12.067     c-3.332-3.332-8.735-3.332-12.067,0c-3.332,3.332-3.332,8.734,0,12.067L247.292,71.625z" fill="#FFFFFF"/>
			<path d="M503.467,153.6H486.4c-4.713,0-8.533,3.82-8.533,8.533s3.82,8.533,8.533,8.533h17.067c4.713,0,8.533-3.82,8.533-8.533     S508.18,153.6,503.467,153.6z" fill="#FFFFFF"/>
			<path d="M196.267,170.667h17.067c4.713,0,8.533-3.82,8.533-8.533s-3.821-8.533-8.533-8.533h-17.067     c-4.713,0-8.533,3.82-8.533,8.533S191.554,170.667,196.267,170.667z" fill="#FFFFFF"/>
			<path d="M349.867,85.333c-27.408,0.072-52.719,14.684-66.487,38.383c-2.364,4.079-0.974,9.302,3.104,11.667     c4.077,2.362,9.297,0.975,11.663-3.1c10.704-18.445,30.395-29.823,51.721-29.884c4.713,0,8.533-3.821,8.533-8.533     C358.4,89.154,354.58,85.333,349.867,85.333z" fill="#FFFFFF"/>
			<path d="M290.133,162.133c0-4.713-3.82-8.533-8.533-8.533s-8.533,3.82-8.533,8.533c0,3.206,0.199,6.41,0.596,9.591     c0.533,4.265,4.156,7.469,8.454,7.475c0.358-0.002,0.715-0.024,1.071-0.067c4.675-0.585,7.992-4.849,7.408-9.525     C290.288,167.129,290.133,164.632,290.133,162.133z" fill="#FFFFFF"/>
		</g>
	</g>
</g>
<g>
</g>
<g>
</g>
<g>
</g>
<g>
</g>
<g>
</g>
<g>
</g>
<g>
</g>
<g>
</g>
<g>
</g>
<g>
</g>
<g>
</g>
<g>
</g>
<g>
</g>
<g>
</g>
<g>
</g>
</svg>
