<?xml version="1.0" encoding="iso-8859-1"?>
<!-- Generator: Adobe Illustrator 19.0.0, SVG Export Plug-In . SVG Version: 6.00 Build 0)  -->
<svg version="1.1" id="Layer_1" xmlns="http://www.w3.org/2000/svg" xmlns:xlink="http://www.w3.org/1999/xlink" x="0px" y="0px"
	 viewBox="0 0 512.001 512.001" style="enable-background:new 0 0 512.001 512.001;" xml:space="preserve">
<g>
	<g>
		<path d="M255.999,77.604c-3.167,0-5.743,2.575-5.743,5.741s2.576,5.741,5.743,5.741s5.743-2.575,5.743-5.741
			S259.166,77.604,255.999,77.604z"/>
	</g>
</g>
<g>
	<g>
		<path d="M85.288,322.484v173.231h104.511V322.484H85.288z M156.382,462.298h-37.677v-13.188h37.677V462.298z M156.382,415.694
			h-37.677v-13.188h37.677V415.694z M156.382,369.089h-37.677v-13.188h37.677V369.089z"/>
	</g>
</g>
<g>
	<g>
		<path d="M322.2,322.484v173.231h104.511V322.484H322.2z M393.294,462.298h-37.677v-13.188h37.677V462.298z M393.294,415.694
			h-37.677v-13.188h37.677V415.694z M393.294,369.089h-37.677v-13.188h37.677V369.089z"/>
	</g>
</g>
<g>
	<g>
		<path d="M500.875,261.582c-11.236-11.237-27.597-14.287-41.627-9.17l-68.086-67.487v-8.51H120.835v8.51l-68.086,67.487
			c-14.029-5.117-30.39-2.066-41.625,9.17C5.144,267.561,1.298,275.136,0,283.487l33.022,5.128c0.14-0.903,0.555-2.228,1.732-3.405
			c2.412-2.412,6.335-2.41,8.746,0c2.412,2.412,2.411,6.335,0,8.745c-1.177,1.177-2.502,1.592-3.405,1.732l5.13,33.022
			c8.35-1.298,15.923-5.143,21.904-11.123c11.205-11.205,14.271-27.506,9.214-41.508l44.494-44.102v57.092H189.8h33.417v33.417
			v96.398h65.567v-96.398v-33.417h33.417h68.964v-57.092l44.494,44.102c-5.057,14.002-1.991,30.304,9.214,41.507
			c5.979,5.979,13.553,9.826,21.904,11.123l5.13-33.022c-0.904-0.14-2.228-0.555-3.405-1.731c-2.412-2.412-2.412-6.336,0-8.746
			c2.412-2.41,6.335-2.412,8.746,0c1.177,1.177,1.592,2.502,1.732,3.405l33.022-5.128
			C510.702,275.136,506.856,267.561,500.875,261.582z M301.246,245.739h-90.492v-24.032h90.492V245.739z"/>
	</g>
</g>
<g>
	<g>
		<path d="M255.999,16.286c-57.598,0-104.457,46.856-104.457,104.451v22.261h208.915v-22.261
			C360.457,63.142,313.597,16.286,255.999,16.286z M255.999,122.504c-21.593,0-39.16-17.566-39.16-39.158
			s17.567-39.158,39.16-39.158c21.593,0,39.16,17.566,39.16,39.158S277.592,122.504,255.999,122.504z"/>
	</g>
</g>
<g>
</g>
<g>
</g>
<g>
</g>
<g>
</g>
<g>
</g>
<g>
</g>
<g>
</g>
<g>
</g>
<g>
</g>
<g>
</g>
<g>
</g>
<g>
</g>
<g>
</g>
<g>
</g>
<g>
</g>
</svg>
