<?xml version="1.0" encoding="iso-8859-1"?>
<!-- Generator: Adobe Illustrator 19.0.0, SVG Export Plug-In . SVG Version: 6.00 Build 0)  -->
<svg version="1.1" id="Capa_1" xmlns="http://www.w3.org/2000/svg" xmlns:xlink="http://www.w3.org/1999/xlink" x="0px" y="0px"
	 viewBox="0 0 512 512" style="enable-background:new 0 0 512 512;" xml:space="preserve">
<g>
	<g>
		<path d="M482,136v45h-30v-45h-30v75h30v60h-61v-60H121v60H60v-60h30v-75H60v45H30v-45H0v75h30v90h91v60h90v60h90v-60h90v-60h91
			v-90h30v-75H482z M241,301h-60v-30h60V301z M331,301h-60v-30h60V301z"/>
	</g>
</g>
<g>
	<g>
		<rect x="61" y="466" width="120" height="46"/>
	</g>
</g>
<g>
	<g>
		<rect x="61" y="391" width="120" height="45"/>
	</g>
</g>
<g>
	<g>
		<rect x="331" y="466" width="120" height="46"/>
	</g>
</g>
<g>
	<g>
		<rect x="331" y="391" width="120" height="45"/>
	</g>
</g>
<g>
	<g>
		<path d="M151,0v151h60v30h90v-30h60V0H151z M241,91h-30V61h30V91z M301,91h-30V61h30V91z"/>
	</g>
</g>
<g>
</g>
<g>
</g>
<g>
</g>
<g>
</g>
<g>
</g>
<g>
</g>
<g>
</g>
<g>
</g>
<g>
</g>
<g>
</g>
<g>
</g>
<g>
</g>
<g>
</g>
<g>
</g>
<g>
</g>
</svg>
